<?xml version="1.0" encoding="UTF-8"?>
<svg width="92px" height="46px" viewBox="0 0 92 46" version="1.1" xmlns="http://www.w3.org/2000/svg" xmlns:xlink="http://www.w3.org/1999/xlink">
    <title>logoOxxo</title>
    <g id="Symbols" stroke="none" stroke-width="1" fill="none" fill-rule="evenodd">
        <g id="Footer-/-Desktop" transform="translate(-863.000000, -16.000000)" fill-rule="nonzero">
            <g id="Group-6" transform="translate(283.000000, 16.000000)">
                <g id="logoOxxo" transform="translate(580.000000, 0.000000)">
                    <path d="M88,40.5 C88,39.3954305 88.8954305,38.5 90,38.5 C91.1045695,38.5 92,39.3954305 92,40.5 C92,41.6045695 91.1045695,42.5 90,42.5 C88.8954305,42.5 88,41.6045695 88,40.5 M91.46,40.5 C91.4762272,40.0900278 91.326027,39.6909076 91.0435367,39.3933512 C90.7610465,39.0957948 90.3702618,38.9250776 89.96,38.92 C89.1505483,39.0109262 88.5386057,39.6954574 88.5386057,40.51 C88.5386057,41.3245426 89.1505483,42.0090738 89.96,42.1 C90.3738977,42.0951288 90.7679075,41.9216705 91.0510088,41.6196958 C91.3341101,41.3177211 91.4818143,40.9133512 91.46,40.5 M89.2,39.38 L90.04,39.38 C90.58,39.38 90.86,39.56 90.86,40.04 C90.871494,40.1988631 90.8147955,40.3551044 90.7040935,40.4696237 C90.5933915,40.584143 90.4391614,40.6461038 90.28,40.64 L90.88,41.62 L90.46,41.62 L89.88,40.64 L89.62,40.64 L89.62,41.6 L89.2,41.6 L89.2,39.38 Z M89.62,40.34 L89.98,40.34 C90.24,40.34 90.44,40.34 90.44,40 C90.44,39.66 90.2,39.7 90,39.7 L89.62,39.7 L89.62,40.34 Z" id="Shape" fill="#FFFFFF"></path>
                    <rect id="Rectangle" fill="#FFFFFF" x="0" y="0.5" width="88" height="45" rx="3.16"></rect>
                    <path d="M80.5260938,2.50004542 L7.56035846,2.50004542 C6.35286795,2.49497798 5.19286011,2.91416242 4.337,3.66484936 C3.4811399,4.4155363 3,5.43583765 3,6.5 L85,6.5 C84.9881033,4.28780858 82.9498416,2.5 80.4396415,2.50004542" id="Path" fill="#FFC629"></path>
                    <path d="M7.66105263,42.4988371 L80.5115789,42.4988371 C82.9629837,42.4580247 84.9425977,40.6943412 85,38.5 L3,38.5 C3.02262487,39.584535 3.52719455,40.6162657 4.40200971,41.3667921 C5.27682487,42.1173186 6.44972276,42.5247306 7.66105263,42.4988371" id="Path" fill="#FFC629"></path>
                    <path d="M23.5324538,22.5221169 C23.5411599,19.682403 21.8750955,17.1177417 19.3129703,16.0268946 C16.750845,14.9360475 13.7987256,15.5344769 11.8364774,17.5424678 C9.87422921,19.5504587 9.28943225,22.5713961 10.3554295,25.193248 C11.4214267,27.8150999 13.9276642,29.5200025 16.7026885,29.5110935 C20.4697193,29.4989171 23.5205549,26.3769624 23.5324538,22.5221169 M78.2351424,22.5221169 C78.2438559,19.684413 76.5801373,17.1211466 74.0206703,16.0289959 C71.4612033,14.9368452 68.5107801,15.5312101 66.5468254,17.5346074 C64.5828708,19.5380046 63.9927266,22.5553133 65.0519057,25.1778826 C66.1110847,27.8004518 68.6106899,29.5110585 71.3837638,29.5110585 C75.1592324,29.5110585 78.2231981,26.3855776 78.2351424,22.5221169 M82.7954665,22.5221169 C82.7954665,27.2453158 80.0150944,31.5034382 75.7508334,33.3109281 C71.4865724,35.1184181 66.5781956,34.1193215 63.3144715,30.7795155 C60.0507474,27.4397095 59.0744105,22.4169118 60.8407253,18.053245 C62.60704,13.6895782 66.768161,10.8442025 71.3837638,10.8442025 C74.4195715,10.8267013 77.336665,12.0499258 79.4873942,14.2424863 C81.6381233,16.4350467 82.8445025,19.4154957 82.8387136,22.5221169 M28.1360042,22.5221169 C28.1360042,28.9686648 23.0311844,34.1957567 16.7314922,34.1998211 C10.4318001,34.2038808 5.32055832,28.9833763 5.31259864,22.5368336 C5.30465753,16.0902908 10.4030063,10.8566012 16.7026885,10.8443918 C19.7272765,10.8443918 22.6276705,12.0754198 24.7643491,14.2660562 C26.9010276,16.4566926 28.0985173,19.4270272 28.0927781,22.5221169 M85,36.5 L85,8.5 L69.4818134,8.5 C66.0890781,8.53727011 62.9013621,10.1682831 60.8365841,12.9233807 L53.6178176,22.6105845 L59.5181866,30.3293839 C60.2058072,31.3519754 59.9953205,32.7458083 59.0381298,33.5082965 C58.0809391,34.2707848 56.7088478,34.1376172 55.9088034,33.2045814 L50.7216658,26.392575 L46.7880865,31.5236967 L46.7880865,31.5236967 L45.5561413,33.1603476 C45.262343,33.5634877 44.8430555,33.8521291 44.3674222,33.978673 C43.669865,34.160161 42.9295026,34.0053781 42.3574064,33.5584518 C41.7403875,33.062639 41.4141969,32.2782218 41.4928835,31.4794629 C41.5319193,31.0418619 41.6974538,30.6260785 41.9683711,30.2851501 L44.1296784,27.3878357 L47.825514,22.5663507 L45.3832367,19.4257504 L48.2577754,15.5552923 L50.786505,18.8728278 L56.9030047,10.8222749 C57.0759093,10.6011058 58.2862414,8.78751975 59.5830258,8.61058452 L3,8.61058452 L3,36.5 L19.1449657,36.5 C22.3150344,36.2531177 25.2353964,34.6464297 27.185029,32.0766193 L34.4037955,22.3894155 L28.5034265,14.6484992 C27.7275494,13.6346684 27.9017264,12.1691613 28.8924618,11.3751975 C29.8831972,10.5812336 31.3153195,10.759471 32.0911966,11.7733017 L37.2999473,18.5853081 L41.2119135,13.4541864 L41.2119135,13.4541864 L42.4438587,11.8396524 C42.7531461,11.4433927 43.1766761,11.1570371 43.6541908,11.021327 C44.344773,10.836798 45.0799454,10.9921664 45.6425936,11.4415482 C46.2810308,11.9202782 46.612683,12.7178295 46.5071165,13.5205371 C46.4747724,13.9281438 46.3326247,14.3185927 46.0964681,14.6484992 L43.9351608,17.4794629 L40.2393253,22.3009479 L42.7248287,25.5742496 L39.8935161,29.4447077 L37.3431734,26.1050553 L31.1402214,34.1334913 C30.9673168,34.3767773 29.6921455,36.3451817 28.3521349,36.5 L85,36.5 Z" id="Shape" fill="#E1251B"></path>
                </g>
            </g>
        </g>
    </g>
</svg>